<svg xmlns="http://www.w3.org/2000/svg" viewBox="0 0 77.93 23.19"><defs><style>.cls-1{fill:#fff;}</style></defs><title>Asset 14</title><g id="Layer_2" data-name="Layer 2"><g id="reference"><path class="cls-1" d="M.43,13.62C2.9,11.47,6.49,10.82,9.56,10,13.09,9,16.47,7.64,20,6.75A84,84,0,0,0,31,3c3-1.23,6.18-1.33,9.24-2.35.31-.1.18-.58-.13-.48a35.1,35.1,0,0,1-5,1,25.89,25.89,0,0,0-5.08,1.69,102,102,0,0,1-11.9,3.87C14.54,7.66,11,9,7.38,10.06c-2.53.71-5.28,1.44-7.3,3.21-.24.21.11.56.35.35Z"/><path class="cls-1" d="M40.32.49c6.47,1.3,12.47,4.08,19,5.31a88.47,88.47,0,0,1,9.26,1.79c2.72.81,7.15,2.15,8.87,4.62.18.26.62,0,.43-.25-1.18-1.69-3.58-2.74-5.43-3.52A43.15,43.15,0,0,0,62.19,5.79a73.16,73.16,0,0,1-11.44-2.6A88.78,88.78,0,0,0,40.45,0c-.31-.07-.45.41-.13.48Z"/><path class="cls-1" d="M.26,13.7c3.92.24,7.4,1.83,11,3.28a37.11,37.11,0,0,0,9.84,2.36C24.64,19.76,28,21,31.6,21.28c3.31.24,7.73-.62,10.38,1.84.24.22.59-.13.36-.35-2-1.86-5-1.89-7.62-1.92a31.31,31.31,0,0,1-6.11-.5c-1.92-.4-3.77-1-5.72-1.29-4-.6-7.72-1-11.51-2.56S4.23,13.44.26,13.2c-.32,0-.32.48,0,.5Z"/><path class="cls-1" d="M42.41,22.94c-.16-1.52,6.19-2.17,7.27-2.62a63.31,63.31,0,0,1,8.57-3.38c3.4-.89,6.72-2.06,10.15-2.86,2.66-.63,6.52-2.77,9.2-1.76.3.12.43-.36.13-.48-2.71-1-5.94.9-8.57,1.55C64.75,14.5,60.34,15.71,56,17c-3.57,1.09-6.6,3.25-10.33,3.81-1.24.19-3.93.29-3.75,2.09,0,.32.53.32.5,0Z"/><path class="cls-1" d="M4.82,12.46a7.65,7.65,0,0,1,1.81-.58c.16,0,.09-.28-.07-.24a8.32,8.32,0,0,0-1.87.6c-.14.07,0,.29.13.22Z"/><path class="cls-1" d="M8.14,11.26v0a.13.13,0,1,0-.25,0v0a.13.13,0,1,0,.25,0Z"/><path class="cls-1" d="M40.2,1.51a3.39,3.39,0,0,1-1.07.32c-.16,0-.16.27,0,.25a3.35,3.35,0,0,0,1.19-.36c.15-.07,0-.28-.12-.21Z"/><path class="cls-1" d="M24.14,18.33a8.1,8.1,0,0,1,1.2.19c.16.05.22-.19.07-.24a7,7,0,0,0-1.2-.19c-.16,0-.23.22-.07.24Z"/><path class="cls-1" d="M27,19.07l.46.05c.16,0,.16-.24,0-.25a2.58,2.58,0,0,1-.39,0c-.16,0-.22.21-.07.24Z"/><path class="cls-1" d="M58.23,7.25a24,24,0,0,0-2.42,1.24,30.79,30.79,0,0,1-3.32,1.23c-.15,0-.09.29.06.24,1-.36,2-.59,2.88-1s1.85-1.08,2.86-1.46c.15-.06.09-.3-.06-.25Z"/></g></g></svg>