<svg xmlns="http://www.w3.org/2000/svg" viewBox="0 0 38.07 13.72"><defs><style>.cls-1{fill:none;stroke:#fff;stroke-miterlimit:10;stroke-width:0.36px;}.cls-2{fill:#fff;}</style></defs><title>Asset 9</title><g id="Layer_2" data-name="Layer 2"><g id="Layer_4" data-name="Layer 4"><path class="cls-1" d="M6.8,1.83c-2.69.39-4.18.35-5.64,1.4-1.34,1.55-1.4,4.93.38,7.37,1.34,1.84,14.84,2.61,18,2.92a4.31,4.31,0,0,0,.88,0c3.16-.34,14.49-1,16-2.61s1.8-4.2,1.14-6.69c-.15-1.38-3.12-2-5.55-2.51-2.26-.29-5-.5-5-.5a26.42,26.42,0,0,0-3.71-.6A7.92,7.92,0,0,0,20.11.2a48.74,48.74,0,0,0-7,.78A61,61,0,0,0,6.8,1.83Z"/><path class="cls-2" d="M1.52,4a7.54,7.54,0,0,0,2.76.86.16.16,0,0,0,.08-.31A7.16,7.16,0,0,1,1.68,3.7c-.17-.11-.33.16-.16.28Z"/><path class="cls-2" d="M2.19,10.17l.26.08c.2.07.28-.24.08-.31l-.25-.08c-.2-.07-.28.24-.09.31Z"/><path class="cls-2" d="M23.05,7a26.07,26.07,0,0,0,6.28-1.46c.15-.06.08-.31-.07-.24A26.53,26.53,0,0,1,23,6.72c-.16,0-.09.28.07.25Z"/><path class="cls-2" d="M32.41,4.82a12,12,0,0,0,3.3-1c.14-.07,0-.29-.13-.22a12.39,12.39,0,0,1-3.23,1c-.17,0-.1.27.06.24Z"/><path class="cls-2" d="M19.86,8.54V9.6a.13.13,0,0,0,.25,0V8.54a.13.13,0,0,0-.25,0Z"/><path class="cls-2" d="M19.86,10.77v.31a.13.13,0,0,0,.26,0v-.31a.13.13,0,0,0-.26,0Z"/><path class="cls-2" d="M12.78,6.39a30.3,30.3,0,0,0,4.63.9c.16,0,.23-.22.07-.25a30.06,30.06,0,0,1-4.63-.9c-.16,0-.23.19-.07.25Z"/><path class="cls-2" d="M7.5,5.45c.71.14,1.35.55,2.05.75.16,0,.23-.2.07-.25-.7-.2-1.34-.61-2-.74-.17,0-.24.21-.07.24Z"/><path class="cls-2" d="M19.92,12.06v.18a.13.13,0,0,0,.26,0v-.18a.13.13,0,0,0-.26,0Z"/><path class="cls-2" d="M20.37,7.65c.22,0,.43-.18.64-.21s.17-.28,0-.26-.46.18-.7.22-.1.28.06.25Z"/><path class="cls-2" d="M18.81,7.56a2.57,2.57,0,0,1,.55.06c.15.06.22-.19.06-.25a2,2,0,0,0-.61-.06c-.17,0-.17.24,0,.25Z"/><path class="cls-2" d="M9.35,4.05C10.79,3,12.41,3.24,14,2.77a37.86,37.86,0,0,0,4-1.1c.15-.06.08-.31-.07-.25a14.54,14.54,0,0,1-2.24.52,21.06,21.06,0,0,1-2.52.71,7.48,7.48,0,0,0-4,1.17c-.13.1,0,.33.13.23Z"/><path class="cls-2" d="M21.12,6.21c.81-.82,1.93-.9,2.93-1.42A16.19,16.19,0,0,1,28.58,3.4c.16,0,.09-.28-.07-.25A17.48,17.48,0,0,0,24,4.5c-1.13.55-2.2.61-3.11,1.53a.13.13,0,0,0,.19.18Z"/><path class="cls-2" d="M14.08,5.21c.3-.17,1.56-.93,1.44-.89.41-.14.76-.05,1.11-.17s.68-.41,1.05-.57C19,3,20.67,3,22,2.42c.16-.07,0-.29-.13-.22-1.28.57-2.91.4-4.19,1A7.61,7.61,0,0,1,15.82,4,6.62,6.62,0,0,0,14,5a.13.13,0,1,0,.13.22Z"/></g></g></svg>