<svg xmlns="http://www.w3.org/2000/svg" viewBox="0 0 9.63 3.74"><defs><style>.cls-1{fill:none;stroke:#fff;stroke-miterlimit:10;stroke-width:0.1px;}.cls-2{fill:#fff;}</style></defs><title>Asset 8</title><g id="Layer_2" data-name="Layer 2"><g id="Layer_4" data-name="Layer 4"><path class="cls-1" d="M1.75.47A2,2,0,0,0,.34.91,2.12,2.12,0,0,0,.44,3.2c.56.76,8.22.5,8.69.1a2,2,0,0,0,.28-2.08C9.37.79,8.59.4,8,.44A2.46,2.46,0,0,0,6.79.28a1.47,1.47,0,0,0-1-.08A.79.79,0,0,0,5.06.15,3.15,3.15,0,0,0,3.32.21,2.84,2.84,0,0,0,1.75.47Z"/><path class="cls-2" d="M.52,1.14a2.61,2.61,0,0,0,.86.27c.06,0,.09-.08,0-.1a2.47,2.47,0,0,1-.84-.25s-.1.05,0,.08Z"/><path class="cls-2" d="M.73,2.94.81,3a0,0,0,1,0,0-.09l-.08,0c-.06,0-.09.08,0,.1Z"/><path class="cls-2" d="M9.06,2.85l-.2.08c-.06,0,0,.12,0,.1a.54.54,0,0,0,.22-.09.05.05,0,1,0,0-.09Z"/><path class="cls-2" d="M8,1.72a5.07,5.07,0,0,0,1-.29c.06,0,0-.12,0-.1a5.1,5.1,0,0,1-1,.3c-.07,0,0,.1,0,.09Z"/><path class="cls-1" d="M3.76,1.74c.2.18.71.11.71.11a1.7,1.7,0,0,0,.89.09,2.8,2.8,0,0,0,.94-.09"/><path class="cls-2" d="M7.75,3.26l.1,0c.05,0,0-.09,0-.08l-.1,0c-.05,0,0,.09,0,.07Z"/><path class="cls-2" d="M3.25.62a1.08,1.08,0,0,1-.34.23c-.05,0,0,.09,0,.07A1.67,1.67,0,0,0,3.3.68s0-.09,0-.06Z"/><path class="cls-2" d="M4.92.67,4.64.9s0,.09,0,.07A.79.79,0,0,0,5,.71s0-.08-.07,0Z"/><path class="cls-2" d="M6.65.76,6.29,1s0,.1,0,.08A.81.81,0,0,0,6.72.8s0-.08-.07,0Z"/><path class="cls-2" d="M2.31,1.56A1,1,0,0,0,3,1.7s0-.09,0-.08a1,1,0,0,1-.69-.13s-.08,0,0,.07Z"/></g></g></svg>