<svg xmlns="http://www.w3.org/2000/svg" viewBox="0 0 31.64 11.46"><defs><style>.cls-1{fill:none;}.cls-1,.cls-2{stroke:#fff;stroke-miterlimit:10;stroke-width:0.15px;}.cls-2{fill:#191818;}</style></defs><title>Asset 13</title><g id="Layer_2" data-name="Layer 2"><g id="reference"><polygon class="cls-1" points="4.42 0.08 3.75 1.69 6.14 2.09 6.9 0.13 4.42 0.08"/><polyline class="cls-1" points="6.9 0.13 22.96 6.03 22.16 7.71 6.14 2.09"/><polyline class="cls-1" points="3.75 1.69 20.6 7.61 22.16 7.71"/><polygon class="cls-1" points="0.07 6.33 0.08 8.02 2.52 7.87 2.47 5.83 0.07 6.33"/><polyline class="cls-1" points="2.47 5.83 20.15 7.9 19.77 9.34 2.52 7.87"/><polyline class="cls-1" points="0.08 8.02 17.99 9.68 19.52 9.44"/><polyline class="cls-2" points="13.27 8.67 30.71 5.65 31.53 7.32 14.35 10.54"/><polygon class="cls-2" points="11.31 9.8 12.16 11.36 14.35 10.54 13.27 8.67 11.31 9.8"/><polyline class="cls-1" points="12.16 11.36 30.23 7.98 31.53 7.32"/></g></g></svg>