<svg xmlns="http://www.w3.org/2000/svg" width="19.828" height="25" viewBox="0 0 19.828 25">
  <defs>
    <style>
      .cls-1 {
        fill: none;
      }

      .cls-2, .cls-3 {
        stroke: none;
      }

      .cls-3 {
        fill: #ebebeb;
      }
    </style>
  </defs>
  <g id="Union_17" data-name="Union 17" class="cls-1" transform="translate(0 1258)">
    <path class="cls-2" d="M0-1233v-9.1a9,9,0,0,1,4.813-7.969,5.585,5.585,0,0,1-.5-2.324,5.6,5.6,0,0,1,5.6-5.6,5.6,5.6,0,0,1,5.6,5.6,5.584,5.584,0,0,1-.5,2.324,9,9,0,0,1,4.813,7.969v9.1Z"/>
    <path class="cls-3" d="M 17.82789993286133 -1235 L 17.82789993286133 -1242.103515625 C 17.82789993286133 -1244.71142578125 16.39291954040527 -1247.086791992188 14.08294010162354 -1248.302734375 L 12.41028022766113 -1249.183227539062 L 13.19505023956299 -1250.90283203125 C 13.40921020507812 -1251.372192382812 13.51780033111572 -1251.874755859375 13.51780033111572 -1252.396850585938 C 13.51780033111572 -1254.3837890625 11.90091991424561 -1256.000244140625 9.91349983215332 -1256.000244140625 C 7.92657995223999 -1256.000244140625 6.310100078582764 -1254.3837890625 6.310100078582764 -1252.396850585938 C 6.310100078582764 -1251.874755859375 6.418680191040039 -1251.3720703125 6.632840156555176 -1250.90283203125 L 7.417550086975098 -1249.183227539062 L 5.744929790496826 -1248.302734375 C 3.434969902038574 -1247.086791992188 2 -1244.71142578125 2 -1242.103515625 L 2 -1235 L 17.82789993286133 -1235 M 19.82789993286133 -1233 L -3.356933575560106e-08 -1233 L -3.356933575560106e-08 -1242.103515625 C -3.356933575560106e-08 -1245.562744140625 1.951229929924011 -1248.56591796875 4.813330173492432 -1250.072509765625 C 4.490190029144287 -1250.780639648438 4.310100078582764 -1251.567749023438 4.310100078582764 -1252.396850585938 C 4.310100078582764 -1255.491088867188 6.819300174713135 -1258.000244140625 9.91349983215332 -1258.000244140625 C 13.00860023498535 -1258.000244140625 15.51780033111572 -1255.491088867188 15.51780033111572 -1252.396850585938 C 15.51780033111572 -1251.567749023438 15.33769989013672 -1250.780639648438 15.01453971862793 -1250.072509765625 C 17.87664031982422 -1248.56591796875 19.82789993286133 -1245.562744140625 19.82789993286133 -1242.103515625 L 19.82789993286133 -1233 Z"/>
  </g>
</svg>
