<svg xmlns="http://www.w3.org/2000/svg" viewBox="0 0 46.76 17.14"><defs><style>.cls-1{fill:#fff;}.cls-2{fill:none;stroke:#fff;stroke-miterlimit:10;stroke-width:0.6px;}</style></defs><title>Asset 5</title><g id="Layer_2" data-name="Layer 2"><g id="Layer_4" data-name="Layer 4"><path class="cls-1" d="M39.91,6.79a17,17,0,0,1,3.66,4.83c.18.34.69,0,.52-.3a17.87,17.87,0,0,0-3.76-5c-.28-.26-.7.16-.42.43Z"/><path class="cls-2" d="M1.64,16.85H45.06c1.38-.37,1.53-1.21,1.32-2.32C45.35,9.33,41.73.3,23.35.3S1,9.26.33,14.53A2,2,0,0,0,1.64,16.85Z"/><path class="cls-1" d="M3.9,9a7.38,7.38,0,0,0-1.63,4c0,.38.56.38.59,0A6.75,6.75,0,0,1,4.32,9.39c.24-.29-.18-.72-.42-.42Z"/><path class="cls-1" d="M20.88,2.75l.73.72c.28.27.7-.15.43-.42l-.73-.72a.3.3,0,0,0-.43.42Z"/><path class="cls-1" d="M24.71,2.57l.73.73c.28.27.7-.16.43-.43l-.73-.72c-.28-.27-.7.15-.43.42Z"/><path class="cls-1" d="M23,3l1,1a.3.3,0,0,0,.43-.42l-1-1c-.27-.27-.69.15-.42.43Z"/></g></g></svg>