<svg xmlns="http://www.w3.org/2000/svg" viewBox="0 0 74.94 9.53"><defs><style>.cls-1{fill:none;stroke:#fff;stroke-miterlimit:10;stroke-width:0.59px;}.cls-2{fill:#fff;}</style></defs><title>Asset 17</title><g id="Layer_2" data-name="Layer 2"><g id="Layer_4" data-name="Layer 4"><path class="cls-1" d="M72.44.3H2.51C1,.3-1,3.64,1.34,6.83a6.53,6.53,0,0,0,5.31,2.4H68.3a6.51,6.51,0,0,0,5.3-2.4C75.9,3.64,73.9.3,72.44.3Z"/><path class="cls-2" d="M37.64,8a12.89,12.89,0,0,0,2.06-.05c.31,0,.32-.53,0-.5a12.89,12.89,0,0,1-2.06.05c-.32,0-.32.49,0,.5Z"/><path class="cls-2" d="M72.37,2.26l.06.38c-.06.31.42.45.49.13A1.12,1.12,0,0,0,72.81,2c-.15-.29-.58,0-.44.25Z"/><path class="cls-2" d="M3.17,1.58l-.23.57c-.12.29.36.42.48.13l.24-.56c.12-.3-.36-.43-.49-.14Z"/><path class="cls-2" d="M3.38,3.35l-.13.57c-.07.31.42.44.49.13l.12-.57c.07-.31-.41-.44-.48-.13Z"/></g></g></svg>