<svg xmlns="http://www.w3.org/2000/svg" viewBox="0 0 46.75 9.53"><defs><style>.cls-1{fill:none;stroke:#fff;stroke-miterlimit:10;stroke-width:0.59px;}.cls-2{fill:#fff;}</style></defs><title>Asset 6</title><g id="Layer_2" data-name="Layer 2"><g id="Layer_4" data-name="Layer 4"><path class="cls-1" d="M45.08.3H1.67C.76.3-.48,3.64.94,6.83a3.73,3.73,0,0,0,3.3,2.4H42.51a3.7,3.7,0,0,0,3.29-2.4C47.23,3.64,46,.3,45.08.3Z"/><path class="cls-2" d="M23.48,8a6,6,0,0,0,1.34-.05c.32,0,.18-.53-.13-.49a5.45,5.45,0,0,1-1.21,0c-.32,0-.32.48,0,.5Z"/><path class="cls-2" d="M44.93,2.2a1.11,1.11,0,0,1,0,.51c0,.32.46.31.5,0a1.39,1.39,0,0,0-.06-.64c-.1-.31-.58-.17-.49.13Z"/><path class="cls-2" d="M2,1.58l-.15.57a.25.25,0,0,0,.49.13l.14-.56A.25.25,0,0,0,2,1.58Z"/><path class="cls-2" d="M2.12,3.35,2,3.92c0,.31.44.45.48.13l.08-.57c0-.31-.44-.45-.48-.13Z"/></g></g></svg>