<svg xmlns="http://www.w3.org/2000/svg" viewBox="0 0 74.95 15.06"><defs><style>.cls-1{fill:#fff;}.cls-2{fill:none;stroke:#fff;stroke-miterlimit:10;stroke-width:0.6px;}</style></defs><title>Asset 18</title><g id="Layer_2" data-name="Layer 2"><g id="Layer_4" data-name="Layer 4"><path class="cls-1" d="M64.3,4.75A21.28,21.28,0,0,1,70.21,9.6c.24.3.66-.13.42-.42a21.3,21.3,0,0,0-6-4.94.3.3,0,0,0-.3.51Z"/><path class="cls-2" d="M2.46,14.77H72.4c2.22-.37,2.47-1.21,2.12-2.32C72.87,7.25,73.48.3,37.48.3,2.47.3,1.35,7.18.34,12.45.11,13.69.78,14.27,2.46,14.77Z"/><path class="cls-1" d="M6.28,6.84a6.34,6.34,0,0,0-2.62,4c-.06.37.52.54.58.16A5.72,5.72,0,0,1,6.58,7.36c.31-.23,0-.75-.3-.52Z"/><path class="cls-1" d="M33.65,2.68l1.17.72c.33.21.63-.31.31-.51L34,2.16c-.33-.2-.63.32-.3.52Z"/><path class="cls-1" d="M40.4,2.68l1.18.72c.33.21.63-.31.3-.51l-1.17-.73c-.33-.2-.63.32-.31.52Z"/><path class="cls-1" d="M37,3l1.65,1c.32.2.62-.31.3-.52l-1.65-1c-.33-.21-.63.31-.3.51Z"/></g></g></svg>