<svg xmlns="http://www.w3.org/2000/svg" viewBox="0 0 16.8 5.58"><defs><style>.cls-1{fill:none;stroke:#fff;stroke-miterlimit:10;stroke-width:0.15px;}.cls-2{fill:#fff;}</style></defs><title>Asset 12</title><g id="Layer_2" data-name="Layer 2"><g id="Layer_4" data-name="Layer 4"><path class="cls-1" d="M2.3.72C-1.83,2,.68,3.07,2.71,3.06,1.63,3.9.33,6.2,5.19,3.44c0,0-.05,1.68,1.22,2A2.66,2.66,0,0,0,9.74,3.23s1.75,4.23,3-.22c3.65,1.62,5.33.13,2.55-1.32A14.12,14.12,0,0,0,11.15.43,19.3,19.3,0,0,0,2.3.72Z"/><path class="cls-2" d="M3.57,1.75l.12,0a.1.1,0,1,0,.05-.19l-.12,0a.1.1,0,0,0-.05.2Z"/><path class="cls-2" d="M5.89,3,6,3c.12,0,.07-.24,0-.19a.28.28,0,0,1-.13,0c-.12,0-.07.22.06.2Z"/><path class="cls-2" d="M7.42,3.56l.1-.05c.12-.06,0-.23-.1-.17l-.11.05c-.11.06,0,.23.11.17Z"/><path class="cls-2" d="M10.78,3.4a.46.46,0,0,0,.16-.07c.11-.06,0-.23-.1-.17l-.12,0c-.12,0-.07.22.06.2Z"/><path class="cls-2" d="M7.72,1.52a.1.1,0,0,0,0-.2.1.1,0,0,0,0,.2Z"/><path class="cls-2" d="M9,1.29a.1.1,0,0,0,0-.2.1.1,0,0,0,0,.2Z"/><path class="cls-2" d="M13.51,2.48h.07a.1.1,0,0,0,0-.2h-.07a.1.1,0,0,0,0,.2Z"/><path class="cls-2" d="M5.33,1.34a.1.1,0,0,0,0-.2.1.1,0,0,0,0,.2Z"/></g></g></svg>